Coordinates
version=1
nRows=19
nColumns=36
inDegrees=yes

Units are S.I. units (second, meters, Newtons, ...)
If the header above contains a line with 'inDegrees', this indicates whether rotational values are in degrees (yes) or radians (no).

endheader
time	pelvis_tilt	pelvis_list	pelvis_rotation	pelvis_tx	pelvis_ty	pelvis_tz	hip_flexion_r	hip_adduction_r	hip_rotation_r	knee_angle_r	knee_angle_r_beta	ankle_angle_r	subtalar_angle_r	mtp_angle_r	hip_flexion_l	hip_adduction_l	hip_rotation_l	knee_angle_l	knee_angle_l_beta	ankle_angle_l	subtalar_angle_l	mtp_angle_l	lumbar_extension	lumbar_bending	lumbar_rotation	arm_flex_r	arm_add_r	arm_rot_r	elbow_flex_r	pro_sup_r	arm_flex_l	arm_add_l	arm_rot_l	elbow_flex_l	pro_sup_l
      6.50000000	     -2.22782918	      2.21820440	     -0.08736108	      0.84028595	      1.30394924	      0.09462725	      4.40723150	     -2.62902641	     -9.54069647	      1.76578661	      0.03081879	    -40.41530630	     -0.73828489	     -7.49999987	     10.33398881	     -1.14310318	    -10.91745585	      4.75565683	      0.08300187	    -34.78489968	      4.77888487	     -7.49999987	      3.35614662	     -2.22677028	      6.37907596	    -43.18064796	    -45.87578293	    -48.93400422	    137.87375182	     80.66129340	     22.68954029	    -54.08487412	    -10.68309676	    130.28508485	     71.40534338
      6.51666670	     -2.10568352	      2.15480250	     -0.23298773	      0.84416224	      1.28444596	      0.09377435	      4.24481140	     -2.67525944	     -8.95355631	      2.42879002	      0.04239038	    -40.01616035	     -1.30229875	     -7.49999987	     10.28564641	     -1.39918733	    -10.53200789	      5.55035577	      0.09687198	    -34.12910521	      3.85540598	     -7.49999987	      3.68435457	     -2.13207371	      3.72497997	    -39.90338616	    -47.46330247	    -44.83266013	    136.77259520	     80.38098772	     11.57795116	    -54.99453996	    -21.12121898	    131.39952239	     70.04973671
      6.53333330	     -1.92530964	      2.02945758	     -0.03410478	      0.84655998	      1.26669263	      0.09353072	      4.03391646	     -2.72558073	     -8.17875896	      3.09852596	      0.05407948	    -38.35097394	     -1.39152619	     -7.49999987	     10.11712311	     -1.62225654	    -10.00395063	      6.31685627	      0.11024994	    -33.85589391	      2.89733806	     -7.49999987	      4.09169973	     -2.04847139	      3.84772413	    -42.01234016	    -45.12981405	    -45.68128189	    137.22086696	     79.35645055	      8.70631447	    -53.78903637	    -22.01387820	    129.90931690	     69.53062136
      6.55000000	     -1.81739866	      1.89631243	     -0.14453980	      0.84963209	      1.24555077	      0.09382678	      4.04331745	     -2.79063243	     -7.36119783	      3.52064466	      0.06144684	    -37.87704156	     -1.73569260	     -7.49999987	      9.91446432	     -1.80251170	     -9.73698271	      6.95947715	      0.12146579	    -34.02391974	      1.93670015	     -7.49999987	      4.54046965	     -2.04009693	      1.38854507	    -39.10551079	    -45.91825633	    -41.33941529	    135.51000291	     78.91691206	     -1.10761461	    -52.65595007	    -30.17560150	    130.38777672	     68.17682538
      6.56666670	     -1.98460756	      1.95414518	      0.04778949	      0.85581663	      1.22825505	      0.09288755	      4.00614896	     -3.08209254	     -7.19376582	      3.64501767	      0.06361756	    -37.32186909	     -1.29557929	     -7.49999987	      9.71054999	     -1.66846015	     -9.15543328	      7.22320822	      0.12606877	    -34.62191996	      1.51300279	     -7.49999987	      5.53817077	     -2.03429585	      1.74504435	    -41.38997730	    -42.94297362	    -40.63420134	    135.32471229	     76.76853613	     -4.13054900	    -50.26376253	    -29.86034079	    128.78374823	     67.26266749
      6.58333330	     -2.20208689	      1.89584852	      0.16647799	      0.85848345	      1.19633680	      0.09690978	      4.29632627	     -3.01221235	     -6.13066159	      3.77255865	      0.06584357	    -36.41435876	     -0.78693800	     -7.49999987	      9.59306940	     -1.83460218	     -9.16175733	      7.53176542	      0.13145411	    -35.04010940	      0.83684851	     -7.49999987	      6.09950409	     -2.23194563	     -1.65955560	    -38.27993326	    -43.12532512	    -35.23961345	    133.61212460	     77.09030261	    -16.01386426	    -47.01691894	    -40.27031340	    130.23646103	     65.52867668
      6.60000000	     -2.24978242	      1.87893013	     -0.00119326	      0.85984135	      1.16507373	      0.09498533	      4.58692307	     -3.09717048	     -6.10723180	      4.19098080	      0.07314641	    -36.16763937	     -1.13417089	     -7.49999987	      9.25094933	     -1.88775001	     -8.59668659	      7.78755191	      0.13591842	    -35.96531850	      0.39999626	     -7.49999987	      6.78692114	     -1.90960858	     -1.52443519	    -39.64817356	    -40.95480253	    -35.43890132	    132.80111473	     75.65726819	    -18.64714425	    -44.49208553	    -40.55314769	    128.45442140	     65.01192789
      6.61666670	     -2.28235031	      1.92860134	     -0.35958847	      0.86215624	      1.12825596	      0.09507897	      5.07975606	     -3.15354180	     -5.29639626	      5.21765850	      0.09106532	    -34.55095916	     -1.19381316	     -7.49999987	      9.16318343	     -1.94519695	     -8.23422019	      8.89843099	      0.15530692	    -34.97451959	     -0.90781867	     -7.49999987	      7.14655516	     -2.34719727	     -8.41446323	    -29.34220889	    -44.79877139	    -23.75042265	    128.45059570	     75.20830333	    -32.89725598	    -37.45336631	    -54.38419811	    130.94596077	     62.76923274
      6.63333330	     -1.89769994	      1.91543676	     -0.36137618	      0.86283639	      1.09494420	      0.09384007	      5.43816628	     -3.23308425	     -4.01639197	      7.96422694	      0.13900198	    -28.89898359	     -2.64776947	     -7.49999987	      9.24381943	     -2.01268562	     -6.59720616	     11.78568344	      0.20569898	    -29.44942154	     -2.81058479	     -7.49999987	      7.29180270	     -2.13449608	     -8.89872707	    -29.75559710	    -43.35219644	    -23.74266395	    127.05523804	     73.94044953	    -33.88377972	    -34.70701372	    -53.36937549	    128.30755645	     62.57814096
      6.65000000	     -0.97367611	      1.97299620	     -0.12255404	      0.86093017	      1.07123068	      0.09449852	      5.81345733	     -3.16638961	     -2.26300309	     12.81372977	      0.22364177	    -18.31065579	     -4.98396133	     -7.49999987	      9.77431102	     -2.11055950	     -4.37831677	     17.01329494	      0.29693801	    -20.38557912	     -5.47335023	     -7.49999987	      6.87395401	     -2.22299239	     -9.30997708	    -29.03816855	    -41.13400766	    -22.89286951	    123.40197474	     72.23913331	    -33.20755648	    -32.26925009	    -50.77402572	    124.19719742	     62.40858857
      6.66666670	      0.18909535	      1.69819148	      0.10311946	      0.85827777	      1.03607652	      0.09382662	      7.18535082	     -2.64098278	     -0.69758874	     19.80227681	      0.34561493	     -5.57614015	     -8.51708435	     -7.49999987	     11.03742962	     -2.31740383	     -2.26025561	     23.82065641	      0.41574888	     -8.56007049	     -8.48841414	     -7.49999987	      5.74420442	     -2.18021903	     -9.37592372	    -27.94172846	    -38.77717193	    -21.96151439	    119.47782755	     71.17664886	    -31.81331925	    -30.11928648	    -47.86411660	    120.30732510	     62.30678965
      6.68333330	      1.47367856	      1.54844570	      0.12358818	      0.85400890	      0.99859311	      0.08933079	      9.55442651	     -2.54224907	      0.20277034	     28.42704633	      0.49614556	      7.72829868	    -10.35492062	     -7.49999987	     12.94676337	     -2.31351552	     -1.35543317	     31.63748068	      0.55217820	      4.20335759	    -10.74257026	     -7.49999987	      4.08447933	     -1.91283163	     -7.39782244	    -29.40457208	    -35.17840704	    -24.75801938	    116.47017648	     74.68310395	    -27.67819842	    -29.05830008	    -42.64543464	    115.42754866	     63.01051799
      6.70000000	      2.25118472	      1.62114123	     -0.02845000	      0.85124705	      0.97081059	      0.09334759	     12.74149096	     -2.52542302	      0.52844461	     37.41222371	      0.65296648	     19.27038957	    -10.36174423	     -7.49999987	     15.46984085	     -2.29765405	     -1.04377064	     39.30442507	      0.68599163	     15.59382661	    -11.40400761	     -7.49999987	      2.75913631	     -2.11062203	     -7.07011897	    -27.63654250	    -32.10002146	    -23.78707644	    111.70366469	     73.04896798	    -25.48275285	    -25.90490747	    -42.17931819	    109.13246371	     62.61881775
      6.71666670	      2.63356466	      1.82340559	     -0.46599755	      0.85008510	      0.94716894	      0.09490280	     16.36207851	     -2.57340239	      1.01780230	     45.99269515	      0.80272396	     27.93218807	     -9.63254574	     -7.49999987	     18.06703382	     -2.33142100	     -1.12448481	     46.23179028	      0.80689696	     24.62018042	    -10.79805618	     -7.49999987	      1.67761015	     -2.12825865	     -6.93834128	    -25.82147046	    -28.77335965	    -23.07813278	    104.62809263	     71.95821378	    -22.45450579	    -22.11794843	    -42.90089532	    100.70591469	     62.27677511
      6.73333330	      2.74215352	      1.77435743	     -1.02989077	      0.84660195	      0.92677545	      0.09352238	     20.06339615	     -2.35584200	      1.67134729	     53.41957321	      0.93234744	     33.57850382	     -8.80322233	     -7.49999987	     21.03056210	     -2.56688675	     -1.15856435	     52.61514527	      0.91830752	     30.98945009	    -10.02482985	     -7.49999987	      0.40185722	     -1.71684530	     -6.80898665	    -22.93159819	    -25.23115182	    -22.58137257	     96.51251808	     71.45075570	    -19.62997375	    -18.32332727	    -43.63495157	     93.34928518	     62.17577462
      6.75000000	      2.54423813	      1.89465838	     -1.52770104	      0.84658959	      0.91492558	      0.09072519	     22.79156007	     -2.50889822	      1.98542986	     58.45102733	      1.02016288	     36.84487449	     -7.73111719	     -7.49999987	     23.44478555	     -2.62222099	     -1.26524831	     57.35181757	      1.00097805	     34.54142743	     -9.06699064	     -7.49999987	     -0.17521097	     -1.46738290	     -7.00074987	    -19.62068927	    -21.89422395	    -21.76453381	     86.70181645	     71.93399415	    -17.61694504	    -14.54002621	    -43.85792695	     84.20067080	     62.37562793
      6.76666670	      1.71658555	      1.92965090	     -1.92834417	      0.84381399	      0.91338644	      0.09008983	     25.06958494	     -2.55901710	      2.38717550	     60.93052401	      1.06343826	     37.52225010	     -7.14764647	     -7.49999987	     25.39322199	     -2.69774910	     -1.43219626	     59.55228553	      1.03938346	     35.69180820	     -8.42568996	     -7.49999987	      0.38603260	     -1.54336311	     -9.06716130	    -14.28377967	    -19.54064450	    -17.71664940	     72.89141654	     75.49027597	    -16.83843903	    -10.43647477	    -45.72861757	     72.85748871	     66.32154512
      6.78333330	      1.30341826	      1.97364199	     -1.75305377	      0.83701982	      0.91595934	      0.09169862	     25.95306811	     -2.58813961	      2.42199025	     61.13009603	      1.06692145	     36.46773181	     -7.39338474	     -7.49999987	     26.04157586	     -2.58249373	     -1.20272033	     59.52171828	      1.03884996	     35.31713682	     -8.38049410	     -7.49999987	      0.60130881	     -1.30201487	     -7.87202336	    -13.10833879	    -15.34071721	    -19.60542409	     61.33468920	     77.65605432	    -13.08874385	     -8.28035691	    -43.17640381	     58.03580385	     69.87557428
      6.80000000	      1.11886808	      2.01757169	     -1.52600740	      0.83818456	      0.91997473	      0.09045175	     25.59389891	     -2.70245443	      2.51847925	     59.87042034	      1.04493596	     35.38185372	     -6.73291460	     -7.49999987	     25.82230920	     -2.48986626	     -1.08493023	     58.42774078	      1.01975645	     34.31748824	     -8.15985578	     -7.49999987	      0.71549633	     -1.42449211	     -8.05877422	    -11.30023606	    -12.12735641	    -19.11829937	     49.62063152	     78.64035087	    -11.41137219	     -5.94597913	    -41.42449938	     44.79314187	     71.15035547
